<svg id="visual" viewBox="0 0 900 600" width="900" height="600" xmlns="http://www.w3.org/2000/svg" xmlns:xlink="http://www.w3.org/1999/xlink" version="1.1"><path d="M0 416L21.5 415C43 414 86 412 128.8 409.3C171.7 406.7 214.3 403.3 257.2 409.8C300 416.3 343 432.7 385.8 424.7C428.7 416.7 471.3 384.3 514.2 380.5C557 376.7 600 401.3 642.8 401.7C685.7 402 728.3 378 771.2 375.3C814 372.7 857 391.3 878.5 400.7L900 410L900 601L878.5 601C857 601 814 601 771.2 601C728.3 601 685.7 601 642.8 601C600 601 557 601 514.2 601C471.3 601 428.7 601 385.8 601C343 601 300 601 257.2 601C214.3 601 171.7 601 128.8 601C86 601 43 601 21.5 601L0 601Z" fill="#4facf7"></path><path d="M0 460L21.5 459.8C43 459.7 86 459.3 128.8 455.8C171.7 452.3 214.3 445.7 257.2 438.5C300 431.3 343 423.7 385.8 419.7C428.7 415.7 471.3 415.3 514.2 425C557 434.7 600 454.3 642.8 458.8C685.7 463.3 728.3 452.7 771.2 443C814 433.3 857 424.7 878.5 420.3L900 416L900 601L878.5 601C857 601 814 601 771.2 601C728.3 601 685.7 601 642.8 601C600 601 557 601 514.2 601C471.3 601 428.7 601 385.8 601C343 601 300 601 257.2 601C214.3 601 171.7 601 128.8 601C86 601 43 601 21.5 601L0 601Z" fill="#1394fe"></path><path d="M0 489L21.5 492.2C43 495.3 86 501.7 128.8 496.7C171.7 491.7 214.3 475.3 257.2 468.2C300 461 343 463 385.8 467C428.7 471 471.3 477 514.2 482.5C557 488 600 493 642.8 497.5C685.7 502 728.3 506 771.2 507.7C814 509.3 857 508.7 878.5 508.3L900 508L900 601L878.5 601C857 601 814 601 771.2 601C728.3 601 685.7 601 642.8 601C600 601 557 601 514.2 601C471.3 601 428.7 601 385.8 601C343 601 300 601 257.2 601C214.3 601 171.7 601 128.8 601C86 601 43 601 21.5 601L0 601Z" fill="#0079ff"></path><path d="M0 499L21.5 498.3C43 497.7 86 496.3 128.8 493.5C171.7 490.7 214.3 486.3 257.2 488C300 489.7 343 497.3 385.8 505.5C428.7 513.7 471.3 522.3 514.2 527.7C557 533 600 535 642.8 529.8C685.7 524.7 728.3 512.3 771.2 507.5C814 502.7 857 505.3 878.5 506.7L900 508L900 601L878.5 601C857 601 814 601 771.2 601C728.3 601 685.7 601 642.8 601C600 601 557 601 514.2 601C471.3 601 428.7 601 385.8 601C343 601 300 601 257.2 601C214.3 601 171.7 601 128.8 601C86 601 43 601 21.5 601L0 601Z" fill="#2856ff"></path><path d="M0 548L21.5 546.2C43 544.3 86 540.7 128.8 541.2C171.7 541.7 214.3 546.3 257.2 550.2C300 554 343 557 385.8 555.5C428.7 554 471.3 548 514.2 545.3C557 542.7 600 543.3 642.8 542.5C685.7 541.7 728.3 539.3 771.2 538.3C814 537.3 857 537.7 878.5 537.8L900 538L900 601L878.5 601C857 601 814 601 771.2 601C728.3 601 685.7 601 642.8 601C600 601 557 601 514.2 601C471.3 601 428.7 601 385.8 601C343 601 300 601 257.2 601C214.3 601 171.7 601 128.8 601C86 601 43 601 21.5 601L0 601Z" fill="#6600ff"></path></svg>