<svg id="visual" viewBox="0 0 900 600" width="900" height="600" xmlns="http://www.w3.org/2000/svg" xmlns:xlink="http://www.w3.org/1999/xlink" version="1.1"><path d="M0 419L21.5 415C43 411 86 403 128.8 394C171.7 385 214.3 375 257.2 368.7C300 362.3 343 359.7 385.8 361.3C428.7 363 471.3 369 514.2 375.8C557 382.7 600 390.3 642.8 399.3C685.7 408.3 728.3 418.7 771.2 424.7C814 430.7 857 432.3 878.5 433.2L900 434L900 601L878.5 601C857 601 814 601 771.2 601C728.3 601 685.7 601 642.8 601C600 601 557 601 514.2 601C471.3 601 428.7 601 385.8 601C343 601 300 601 257.2 601C214.3 601 171.7 601 128.8 601C86 601 43 601 21.5 601L0 601Z" fill="#4facf7"></path><path d="M0 423L21.5 426C43 429 86 435 128.8 431.8C171.7 428.7 214.3 416.3 257.2 415.3C300 414.3 343 424.7 385.8 434C428.7 443.3 471.3 451.7 514.2 449.5C557 447.3 600 434.7 642.8 431C685.7 427.3 728.3 432.7 771.2 434C814 435.3 857 432.7 878.5 431.3L900 430L900 601L878.5 601C857 601 814 601 771.2 601C728.3 601 685.7 601 642.8 601C600 601 557 601 514.2 601C471.3 601 428.7 601 385.8 601C343 601 300 601 257.2 601C214.3 601 171.7 601 128.8 601C86 601 43 601 21.5 601L0 601Z" fill="#2b9dfc"></path><path d="M0 455L21.5 457.7C43 460.3 86 465.7 128.8 465.5C171.7 465.3 214.3 459.7 257.2 464.8C300 470 343 486 385.8 492.3C428.7 498.7 471.3 495.3 514.2 484.5C557 473.7 600 455.3 642.8 455.5C685.7 455.7 728.3 474.3 771.2 478.3C814 482.3 857 471.7 878.5 466.3L900 461L900 601L878.5 601C857 601 814 601 771.2 601C728.3 601 685.7 601 642.8 601C600 601 557 601 514.2 601C471.3 601 428.7 601 385.8 601C343 601 300 601 257.2 601C214.3 601 171.7 601 128.8 601C86 601 43 601 21.5 601L0 601Z" fill="#008cff"></path><path d="M0 485L21.5 492.7C43 500.3 86 515.7 128.8 525C171.7 534.3 214.3 537.7 257.2 537C300 536.3 343 531.7 385.8 528C428.7 524.3 471.3 521.7 514.2 523.5C557 525.3 600 531.7 642.8 532.7C685.7 533.7 728.3 529.3 771.2 528.3C814 527.3 857 529.7 878.5 530.8L900 532L900 601L878.5 601C857 601 814 601 771.2 601C728.3 601 685.7 601 642.8 601C600 601 557 601 514.2 601C471.3 601 428.7 601 385.8 601C343 601 300 601 257.2 601C214.3 601 171.7 601 128.8 601C86 601 43 601 21.5 601L0 601Z" fill="#007aff"></path><path d="M0 549L21.5 547C43 545 86 541 128.8 540.8C171.7 540.7 214.3 544.3 257.2 546.2C300 548 343 548 385.8 547.3C428.7 546.7 471.3 545.3 514.2 548C557 550.7 600 557.3 642.8 554.3C685.7 551.3 728.3 538.7 771.2 538.2C814 537.7 857 549.3 878.5 555.2L900 561L900 601L878.5 601C857 601 814 601 771.2 601C728.3 601 685.7 601 642.8 601C600 601 557 601 514.2 601C471.3 601 428.7 601 385.8 601C343 601 300 601 257.2 601C214.3 601 171.7 601 128.8 601C86 601 43 601 21.5 601L0 601Z" fill="#0066ff"></path></svg>